<svg id="Layer_1" data-name="Layer 1" xmlns="http://www.w3.org/2000/svg" viewBox="0 0 93.5 19.2">
  <g>
    <path d="M30,9.2a3.6,3.6,0,0,1-1.5-1,2.3,2.3,0,0,1-.6-1.6,3.3,3.3,0,0,1,.6-1.9A3.1,3.1,0,0,1,30,3.5a5.3,5.3,0,0,1,2.3-.4,5.9,5.9,0,0,1,2.3.5,4.6,4.6,0,0,1,1.6,1.5,3.8,3.8,0,0,1,.6,2.2h-.6a3.8,3.8,0,0,0-.5-1.9,3.5,3.5,0,0,0-1.5-1.2,4.1,4.1,0,0,0-1.9-.5,4.8,4.8,0,0,0-1.8.3,2.4,2.4,0,0,0-1.4,1,2,2,0,0,0-.5,1.5,1.7,1.7,0,0,0,.5,1.4,3.2,3.2,0,0,0,1.3.8l2.2.5,2.3.6a4.2,4.2,0,0,1,1.4.9,3.5,3.5,0,0,1,.5,1.8,3.2,3.2,0,0,1-.6,2,4,4,0,0,1-1.6,1.2,7.8,7.8,0,0,1-2.2.4,5.3,5.3,0,0,1-2.6-.6A3.8,3.8,0,0,1,28,14a4.8,4.8,0,0,1-.6-2.4h.7a3.9,3.9,0,0,0,.5,2A3.4,3.4,0,0,0,30.1,15a5.3,5.3,0,0,0,2.3.4,4.5,4.5,0,0,0,2.7-.7,2.8,2.8,0,0,0,1.1-2.2,2,2,0,0,0-.5-1.4,2.4,2.4,0,0,0-1.2-.7,10.7,10.7,0,0,0-2.1-.5Z" style="fill: #fff"/>
    <path d="M51.1,12.6v3.2H41.6V3.4h.7v9.2Z" style="fill: #fff"/>
    <path d="M60.3,3.4H61l5.1,12.4h-.8l-1.6-4.1H57.5l-1.6,4.1h-.7Zm-2.5,7.7h5.6L60.6,4.2Z" style="fill: #fff"/>
    <path d="M79.9,3.4V4H75.2V15.8h-.7V4H69.8V3.4Z" style="fill: #fff"/>
    <path d="M84.7,3.4h8.8V4H85.4V9.1h7v.6h-7v5.4h8.1v.7H84.7Z" style="fill: #fff"/>
  </g>
  <path d="M5.7,2.8l2-2,.4.5-2,1.9a3.6,3.6,0,0,1,.6,3.6A3.6,3.6,0,0,1,3.8,8.9v2.6A3.2,3.2,0,0,1,6.3,13a3.2,3.2,0,0,1,.6,2.3,3.5,3.5,0,0,1-3.4,3.1,3.6,3.6,0,0,1-3.5-3,3.6,3.6,0,0,1,.7-2.6,3.2,3.2,0,0,1,2.4-1.3V8.9a3.2,3.2,0,0,1-3-2.8A3.2,3.2,0,0,1,1.5,2.6,3.5,3.5,0,0,1,5.7,2.8ZM3.5,8.3A2.9,2.9,0,0,0,6.3,5.5,2.8,2.8,0,0,0,3.5,2.7,2.8,2.8,0,0,0,.6,5.5,3,3,0,0,0,3.5,8.3Zm0,3.8a2.8,2.8,0,1,0-.1,5.6,2.8,2.8,0,1,0,.1-5.6Z" style="fill: #fff"/>
  <rect x="17.4" width="0.5" height="19.17" style="fill: #fff"/>
</svg>
