<?xml version="1.0" encoding="utf-8"?>
<!-- Generator: Adobe Illustrator 22.1.0, SVG Export Plug-In . SVG Version: 6.00 Build 0)  -->
<svg version="1.1" id="Layer_1" xmlns="http://www.w3.org/2000/svg" xmlns:xlink="http://www.w3.org/1999/xlink" x="0px" y="0px"
	 viewBox="0 0 1067 508" style="enable-background:new 0 0 1067 508;" xml:space="preserve">
<style type="text/css">
	.st0{fill:#FFFFFF;}
</style>
<path class="st0" d="M348.511,100.862c-50.976,0-92.446,41.473-92.446,92.449s41.469,92.446,92.446,92.446
	c50.976,0,92.446-41.469,92.446-92.446C440.956,142.335,399.487,100.862,348.511,100.862 M348.511,254.943
	c-33.984,0-61.632-27.647-61.632-61.631s27.647-61.632,61.632-61.632c33.981,0,61.631,27.647,61.631,61.632
	C410.143,227.295,382.492,254.943,348.511,254.943 M502.589,8.377h30.814v272.758h-30.814V8.377z M1057.269,105.486v175.648h-30.814
	V136.3h-61.632v144.834h-30.817V136.3h-61.631v144.834h-30.814V105.486H1057.269z M200.04,73.465L155.503,118
	c-15.114-10.773-33.58-17.136-53.517-17.136C51.013,100.861,9.54,142.333,9.54,193.31c0,45.725,33.374,83.78,77.038,91.138v33.433
	C42.914,325.242,9.54,363.297,9.54,409.022c0,50.973,41.472,92.446,92.446,92.446c50.976,0,92.446-41.472,92.446-92.446
	c0-45.725-33.374-83.78-77.039-91.141v-33.433c43.664-7.358,77.039-45.412,77.039-91.138c0-19.937-6.363-38.404-17.136-53.517
	l44.535-44.538L200.04,73.465z M163.617,409.022c0,33.981-27.647,61.631-61.631,61.631c-33.981,0-61.632-27.651-61.632-61.631
	c0-33.984,27.651-61.632,61.632-61.632C135.97,347.391,163.617,375.038,163.617,409.022 M101.986,254.942
	c-33.981,0-61.632-27.647-61.632-61.631s27.651-61.632,61.632-61.632c33.984,0,61.631,27.647,61.631,61.632
	C163.617,227.295,135.97,254.942,101.986,254.942 M689.023,100.863c-26.209,0-49.969,9.592-66.902,27.008
	c-16.47,16.946-25.544,40.184-25.544,65.441c0,25.397,8.839,48.609,24.891,65.356c16.982,17.723,40.341,27.09,67.554,27.09
	c29.258,0,59.6-14.239,75.499-35.439l-24.653-18.489c-10.205,13.61-31.114,23.114-50.846,23.114
	c-32.024,0-54.919-18.691-60.379-47.767h149.743V191.77c0-24.529-8.672-47.232-24.422-63.924
	C737.544,110.445,714.482,100.863,689.023,100.863 M629.383,176.362c6.637-26.988,29.317-44.682,59.639-44.682
	c29.209,0,50.957,17.739,56.916,44.682H629.383z"/>
</svg>
